HIERARCHY
ROOT Hips
{
  OFFSET 52.8144 100.706 11.7351
  CHANNELS 6 Xposition Yposition Zposition Zrotation Xrotation Yrotation
  JOINT spine
  {
    OFFSET 0 8.81704 0.507024
    CHANNELS 3 Zrotation Xrotation Yrotation
    JOINT spine1
    {
      OFFSET 0 10.7766 0
      CHANNELS 3 Zrotation Xrotation Yrotation
      JOINT spine2
      {
        OFFSET 0 10.3259 0
        CHANNELS 3 Zrotation Xrotation Yrotation
        JOINT Neck
        {
          OFFSET 0 26.511 1.26395
          CHANNELS 3 Zrotation Xrotation Yrotation
          JOINT Head
          {
            OFFSET 0 8.00966 0
            CHANNELS 3 Zrotation Xrotation Yrotation
            End Site
            {
              OFFSET 0 19.3879 -6.39386
            }
          }
        }
        JOINT RightShoulder
        {
          OFFSET -4.34795 11.1512 -0.605422
          CHANNELS 3 Zrotation Xrotation Yrotation
          JOINT RightArm
          {
            OFFSET 0 14.6258 0
            CHANNELS 3 Zrotation Xrotation Yrotation
            JOINT RightArmRoll
            {
              OFFSET 0 7.3834 0
              CHANNELS 3 Zrotation Xrotation Yrotation
              JOINT RightForeArm
              {
                OFFSET 0 21.5052 0
                CHANNELS 3 Zrotation Xrotation Yrotation
                JOINT RightForeArmRoll
                {
                  OFFSET 0 8.28532 0
                  CHANNELS 3 Zrotation Xrotation Yrotation
                  JOINT RightHand
                  {
                    OFFSET 0 16.6268 0
                    CHANNELS 3 Zrotation Xrotation Yrotation
                    End Site
                    {
                      OFFSET 0 0 0
                    }
                  }
                }
              }
            }
          }
        }
        JOINT LeftShoulder
        {
          OFFSET 4.34795 11.1512 -0.605422
          CHANNELS 3 Zrotation Xrotation Yrotation
          JOINT LeftArm
          {
            OFFSET 0 14.6258 0
            CHANNELS 3 Zrotation Xrotation Yrotation
            JOINT LeftArmRoll
            {
              OFFSET 0 7.3834 0
              CHANNELS 3 Zrotation Xrotation Yrotation
              JOINT LeftForeArm
              {
                OFFSET 0 21.5052 0
                CHANNELS 3 Zrotation Xrotation Yrotation
                JOINT LeftForeArmRoll
                {
                  OFFSET 0 8.28532 0
                  CHANNELS 3 Zrotation Xrotation Yrotation
                  JOINT LeftHand
                  {
                    OFFSET 0 16.6268 0
                    CHANNELS 3 Zrotation Xrotation Yrotation
                    End Site
                    {
                      OFFSET 0 0 0
                    }
                  }
                }
              }
            }
          }
        }
      }
    }
  }
  JOINT RightUpLeg
  {
    OFFSET -7.8151 -1.43309 -1.20217
    CHANNELS 3 Zrotation Xrotation Yrotation
    JOINT RightUpLegRoll
    {
      OFFSET 0 19.4959 0
      CHANNELS 3 Zrotation Xrotation Yrotation
      JOINT RightLeg
      {
        OFFSET 0 -24.1427 0
        CHANNELS 3 Zrotation Xrotation Yrotation
        JOINT RightLegRoll
        {
          OFFSET 0 24.2217 0
          CHANNELS 3 Zrotation Xrotation Yrotation
          JOINT RightFoot
          {
            OFFSET 0 20.1605 0
            CHANNELS 3 Zrotation Xrotation Yrotation
            JOINT RightToeBase
            {
              OFFSET 0 16.8532 0
              CHANNELS 3 Zrotation Xrotation Yrotation
              End Site
              {
                OFFSET 0.00714343 8.16187 -0.94078
              }
            }
          }
        }
      }
    }
  }
  JOINT LeftUpLeg
  {
    OFFSET 7.8151 -1.43309 -1.20217
    CHANNELS 3 Zrotation Xrotation Yrotation
    JOINT LeftUpLegRoll
    {
      OFFSET 0 19.496 0
      CHANNELS 3 Zrotation Xrotation Yrotation
      JOINT LeftLeg
      {
        OFFSET 0 24.1426 0
        CHANNELS 3 Zrotation Xrotation Yrotation
        JOINT LeftLegRoll
        {
          OFFSET 0 24.4456 0
          CHANNELS 3 Zrotation Xrotation Yrotation
          JOINT LeftFoot
          {
            OFFSET 0 19.9366 0
            CHANNELS 3 Zrotation Xrotation Yrotation
            JOINT LeftToeBase
            {
              OFFSET 0 16.8532 0
              CHANNELS 3 Zrotation Xrotation Yrotation
              End Site
              {
                OFFSET -0.0320138 8.16187 -0.94078
              }
            }
          }
        }
      }
    }
  }
}
MOTION
Frames: 10
Frame Time: 0.00208333
53.1554 100.605 12.4428 0.000434929 2.68205 -0.107842 0.130022 -2.93777 -0.119889 0.263667 -1.86641 -0.240273 0.266501 -0.22135 -0.24721 -1.27372 9.88667 2.1512 -10.2489 4.78818 1.22378 17.4504 -12.9125 -9.84442 22.6579 31.1539 71.9634 1.59028e-015 -2.62396e-014 3.18055e-015 -7.65054 9.04503 1.22094 -7.11437e-006 4.61363e-006 -3.00445 8.02898 -4.95144 0.697693 -27.0451 -15.473 12.1878 -15.2862 30.0449 -59.295 -2.10691e-005 -1.40248e-007 5.31604e-006 0.515543 12.0526 0.838497 6.06464e-006 6.63264e-007 3.00427 -8.02893 -4.95144 -0.697674 178.051 4.1397 -0.996458 180 7.01566e-015 179.011 178.833 5.51012 179.705 -1.73508e-006 -1.14918e-006 0.0417269 -18.4388 67.6718 19.2778 8.13649 25.2327 -3.48774 -177.67 3.15735 2.78486 4.54188e-006 -4.6773e-006 -1.00705 -2.39215 -6.39079 0.126715 -1.73592e-007 -1.62038e-006 -0.0907066 19.06 68.4724 -19.9344 -8.13649 25.2327 3.48773 
53.1641 100.606 12.4472 0.00657 2.69375 -0.118445 0.127258 -2.94119 -0.120408 0.258528 -1.87295 -0.240634 0.261367 -0.227888 -0.247601 -1.28919 9.90441 2.15788 -10.2534 4.77314 1.22532 17.249 -12.9352 -9.88726 22.481 31.1426 72.1152 -9.54166e-015 9.54166e-015 1.90833e-014 -7.66257 9.3091 1.2534 -7.11437e-006 4.61363e-006 -3.00445 8.02898 -4.95144 0.697693 -26.9402 -15.5103 12.2407 -14.9716 30.0575 -59.7007 -2.10691e-005 -1.40248e-007 5.31604e-006 0.68926 12.2373 0.817335 6.06464e-006 6.63264e-007 3.00427 -8.02893 -4.95144 -0.697674 178.042 4.15706 -0.990552 180 7.01567e-015 179.012 178.828 5.51729 179.706 -1.73508e-006 -1.14918e-006 0.0418689 -18.4391 67.6723 19.2785 8.13649 25.2327 -3.48774 -177.678 3.16478 2.79085 4.54188e-006 -4.6773e-006 -1.00696 -2.39147 -6.38842 0.126744 -1.73592e-007 -1.62038e-006 -0.0905913 19.059 68.4714 -19.9333 -8.13649 25.2327 3.48773 
53.1648 100.604 12.4398 0.0120907 2.7043 -0.128054 0.124508 -2.94438 -0.120679 0.253295 -1.87904 -0.240665 0.256136 -0.233978 -0.247618 -1.30354 9.92423 2.16315 -10.2556 4.75691 1.2257 17.0503 -12.959 -9.9317 22.3034 31.1337 72.2722 -3.18055e-015 5.56597e-015 9.54166e-015 -7.67603 9.57782 1.28696 -7.11437e-006 4.61363e-006 -3.00446 8.02898 -4.95144 0.697693 -26.8349 -15.5461 12.292 -14.6661 30.0758 -60.0983 -2.10691e-005 -1.40248e-007 5.31604e-006 0.856922 12.4249 0.795036 6.06464e-006 6.63264e-007 3.00427 -8.02893 -4.95144 -0.697674 178.034 4.17238 -0.985472 180 7.01567e-015 179.012 178.824 5.52361 179.706 -1.73508e-006 -1.14918e-006 0.0420144 -18.4396 67.673 19.2794 8.13649 25.2327 -3.48774 -177.686 3.17122 2.79609 4.54188e-006 -4.6773e-006 -1.00686 -2.39085 -6.38609 0.12678 -1.73592e-007 -1.62038e-006 -0.090482 19.0579 68.4704 -19.9323 -8.13649 25.2327 3.48773 
53.1627 100.599 12.4466 0.0168925 2.71345 -0.136622 0.121777 -2.94726 -0.12066 0.24796 -1.88457 -0.240304 0.250797 -0.239512 -0.247194 -1.31643 9.94613 2.16684 -10.2555 4.73947 1.2248 16.8548 -12.9844 -9.97809 22.1239 31.1277 72.4355 1.59028e-015 -6.36111e-015 -3.18055e-015 -7.69113 9.85089 1.32167 -7.11437e-006 4.61363e-006 -3.00446 8.02898 -4.95144 0.697693 -26.7282 -15.5803 12.3414 -14.3712 30.1017 -60.4843 -2.10691e-005 -1.40248e-007 5.31604e-006 1.01593 12.6149 0.771637 6.06464e-006 6.63264e-007 3.00427 -8.02893 -4.95144 -0.697674 178.028 4.18533 -0.981317 180 7.01567e-015 179.012 178.82 5.52892 179.706 -1.73508e-006 -1.14918e-006 0.0421628 -18.4402 67.6738 19.2803 8.13649 25.2327 -3.48774 -177.693 3.17641 2.80049 4.54188e-006 -4.6773e-006 -1.00677 -2.39029 -6.3838 0.126826 -1.73592e-007 -1.62038e-006 -0.0903805 19.0569 68.4693 -19.9312 -8.13649 25.2327 3.48773 
53.1621 100.602 12.4459 0.0211009 2.72171 -0.144144 0.119065 -2.94998 -0.12039 0.242505 -1.88981 -0.239628 0.245335 -0.244747 -0.2464 -1.32893 9.97054 2.1691 -10.2517 4.72033 1.22258 16.6588 -13.0117 -10.0276 21.9483 31.1249 72.6016 -3.18055e-015 2.38542e-015 6.36111e-015 -7.70791 10.1293 1.35739 -7.11437e-006 4.61363e-006 -3.00446 8.02898 -4.95144 0.697693 -26.6208 -15.6132 12.3896 -14.0854 30.1329 -60.8665 -2.10691e-005 -1.40248e-007 5.31604e-006 1.17276 12.8079 0.747137 6.06464e-006 6.63264e-007 3.00427 -8.02893 -4.95144 -0.697674 178.022 4.19661 -0.978102 180 7.01567e-015 179.012 178.818 5.53353 179.707 -1.73508e-006 -1.14918e-006 0.0423254 -18.441 67.6748 19.2813 8.13649 25.2327 -3.48774 -177.698 3.18095 2.80412 4.54188e-006 -4.6773e-006 -1.00668 -2.3898 -6.3816 0.126877 -1.73592e-007 -1.62038e-006 -0.0902836 19.0557 68.4681 -19.93 -8.13649 25.2326 3.48778 
53.1555 100.599 12.4502 0.0249278 2.72969 -0.15067 0.116367 -2.95269 -0.119949 0.236932 -1.89506 -0.238765 0.239751 -0.249996 -0.24537 -1.34218 9.9978 2.17021 -10.2431 4.6991 1.21913 16.4591 -13.0411 -10.0808 21.7819 31.1247 72.7665 -1.27222e-014 6.36111e-015 9.54166e-015 -7.72616 10.4141 1.39404 -7.11437e-006 4.61363e-006 -3.00446 8.02898 -4.95144 0.697693 -26.5139 -15.6451 12.4369 -13.8059 30.1659 -61.2542 -2.10691e-005 -1.40248e-007 5.31604e-006 1.3352 13.0055 0.721492 6.06464e-006 6.63264e-007 3.00427 -8.02893 -4.95144 -0.697674 178.018 4.20712 -0.975723 180 7.01567e-015 179.012 178.816 5.5378 179.707 -1.73508e-006 -1.14918e-006 0.0425113 -18.442 67.676 19.2826 8.13649 25.2327 -3.48774 -177.703 3.18555 2.80714 4.54188e-006 -4.6773e-006 -1.00659 -2.38941 -6.37955 0.126925 -1.73592e-007 -1.62038e-006 -0.0901875 19.0545 68.4668 -19.9288 -8.13648 25.2325 3.48789 
53.1613 100.597 12.4521 0.028398 2.73738 -0.156236 0.113681 -2.95538 -0.119353 0.231251 -1.9003 -0.237731 0.234059 -0.255236 -0.244123 -1.35598 10.0277 2.17025 -10.23 4.676 1.21455 16.257 -13.0721 -10.1368 21.6233 31.1265 72.9311 -4.77083e-015 -3.02153e-014 2.22639e-014 -7.74576 10.7051 1.43164 -7.11437e-006 4.61363e-006 -3.00447 8.02898 -4.95144 0.697693 -26.4079 -15.6759 12.4831 -13.5319 30.2003 -61.647 -2.10691e-005 -1.40248e-007 5.31604e-006 1.5026 13.2078 0.694668 6.06464e-006 6.63264e-007 3.00427 -8.02893 -4.95144 -0.697674 178.015 4.21683 -0.974104 180 7.01567e-015 179.012 178.814 5.54168 179.707 -1.73508e-006 -1.14918e-006 0.0427166 -18.4432 67.6775 19.284 8.13649 25.2327 -3.48774 -177.707 3.19016 2.80958 4.54188e-006 -4.6773e-006 -1.00649 -2.38913 -6.37764 0.126968 -1.73592e-007 -1.62038e-006 -0.0900923 19.0532 68.4655 -19.9274 -8.13648 25.2324 3.48805 
53.1576 100.595 12.4552 0.0315361 2.74472 -0.160879 0.111004 -2.95803 -0.118618 0.225479 -1.90551 -0.236539 0.228273 -0.260445 -0.242682 -1.37017 10.0601 2.16929 -10.2133 4.65122 1.20894 16.0538 -13.1044 -10.1951 21.4708 31.1298 73.0958 -1.59028e-014 1.66979e-014 2.8625e-014 -7.7666 11.0022 1.47024 -7.11437e-006 4.61363e-006 -3.00447 8.02898 -4.95144 0.697693 -26.3033 -15.7056 12.5282 -13.2626 30.2357 -62.0447 -2.10691e-005 -1.40248e-007 5.31604e-006 1.6743 13.4149 0.666627 6.06464e-006 6.63264e-007 3.00427 -8.02893 -4.95144 -0.697674 178.012 4.22571 -0.973164 180 7.01567e-015 179.012 178.814 5.54512 179.707 -1.73508e-006 -1.14918e-006 0.042937 -18.4445 67.6791 19.2854 8.13649 25.2327 -3.48774 -177.711 3.19473 2.81149 4.54188e-006 -4.6773e-006 -1.0064 -2.38895 -6.37585 0.127006 -1.73592e-007 -1.62038e-006 -0.089998 19.0518 68.4641 -19.926 -8.13647 25.2323 3.48825 
53.1612 100.594 12.4502 0.0343671 2.7517 -0.164635 0.108334 -2.96064 -0.117757 0.219626 -1.91066 -0.235204 0.222405 -0.265599 -0.241067 -1.38455 10.0949 2.16741 -10.1934 4.62498 1.2024 15.8508 -13.1375 -10.2549 21.3229 31.1339 73.2615 -1.11319e-014 3.97569e-015 9.54166e-015 -7.78856 11.3053 1.50987 -7.11437e-006 4.61363e-006 -3.00447 8.02898 -4.95144 0.697693 -26.2003 -15.734 12.5719 -12.9975 30.2717 -62.4467 -2.10691e-005 -1.40248e-007 5.31604e-006 1.84966 13.6271 0.637334 6.06464e-006 6.63264e-007 3.00427 -8.02893 -4.95144 -0.697674 178.01 4.23371 -0.972827 180 7.01567e-015 179.012 178.813 5.54813 179.707 -1.73508e-006 -1.14918e-006 0.0431686 -18.4459 67.6809 19.287 8.13649 25.2327 -3.48774 -177.714 3.1992 2.8129 4.54188e-006 -4.6773e-006 -1.0063 -2.38887 -6.37419 0.127038 -1.73592e-007 -1.62038e-006 -0.0899047 19.0504 68.4626 -19.9246 -8.13646 25.2321 3.48848 
53.1601 100.592 12.454 0.0369158 2.75829 -0.167542 0.105668 -2.96319 -0.116788 0.213708 -1.91574 -0.233741 0.21647 -0.270676 -0.239299 -1.39895 10.1317 2.16467 -10.1709 4.59749 1.19501 15.6492 -13.1709 -10.3154 21.178 31.1382 73.4286 4.77083e-015 4.77083e-015 -9.54166e-015 -7.81152 11.6141 1.55058 -7.11437e-006 4.61363e-006 -3.00447 8.02898 -4.95144 0.697693 -26.0994 -15.7612 12.614 -12.7357 30.3079 -62.8527 -2.10691e-005 -1.40248e-007 5.31604e-006 2.02803 13.8445 0.606753 6.06464e-006 6.63264e-007 3.00427 -8.02893 -4.95144 -0.697674 178.009 4.24081 -0.973014 180 7.01567e-015 179.013 178.814 5.55063 179.707 -1.73508e-006 -1.14918e-006 0.0434073 -18.4474 67.6827 19.2887 8.13649 25.2327 -3.48774 -177.717 3.20352 2.81387 4.54188e-006 -4.6773e-006 -1.00621 -2.38889 -6.37263 0.127064 -1.73592e-007 -1.62038e-006 -0.0898124 19.049 68.461 -19.9231 -8.13644 25.232 3.48871 
